# Blender 4.0.2
# www.blender.org
mtllib Grass_Block_Model.mtl
o Grass_Block_Cube
v 0.500000 0.000001 -0.500000
v 0.500000 0.000002 0.500000
v -0.500000 0.000002 0.500000
v -0.500000 0.000001 -0.500000
v 0.500000 1.000002 -0.500000
v 0.499999 1.000002 0.500000
v -0.500000 1.000002 0.500000
v -0.500000 1.000002 -0.500000
v -0.500000 0.000002 0.500000
v -0.500000 0.000002 0.500000
v -0.500000 0.000002 0.500000
v -0.500000 0.000001 -0.500000
v -0.500000 0.000001 -0.500000
v -0.500000 0.000001 -0.500000
v -0.500000 0.000001 -0.500000
v 0.500000 0.000001 -0.500000
v 0.500000 0.000001 -0.500000
v 0.500000 0.000001 -0.500000
v 0.500000 0.000002 0.500000
v 0.500000 0.000002 0.500000
v 0.500000 0.000002 0.500000
v 0.500000 0.000002 0.500000
v 0.500000 1.000002 -0.500000
v 0.500000 1.000002 -0.500000
v 0.500000 1.000002 -0.500000
v 0.500000 1.000002 -0.500000
v 0.499999 1.000002 0.500000
v 0.499999 1.000002 0.500000
v 0.499999 1.000002 0.500000
v -0.500000 1.000002 0.500000
v -0.500000 1.000002 0.500000
v -0.500000 1.000002 0.500000
v -0.500000 1.000002 0.500000
v -0.500000 1.000002 -0.500000
v -0.500000 1.000002 -0.500000
v -0.500000 1.000002 -0.500000
vn -0.0000 -1.0000 -0.0000
vn -0.0000 1.0000 -0.0000
vn 1.0000 -0.0000 -0.0000
vn -0.0000 -0.0000 1.0000
vn -1.0000 -0.0000 -0.0000
vn -0.0000 -0.0000 -1.0000
vt 0.503698 0.503698
vt 1.001384 1.001384
vt 0.503698 1.001384
vt -0.000000 0.000000
vt 0.499690 0.500000
vt 0.000000 0.500000
vt 0.502813 1.001473
vt 0.000854 0.502696
vt 0.502813 0.502696
vt 0.501959 1.000000
vt 0.000000 0.502813
vt 0.501959 0.502813
vt 0.503460 1.000925
vt 0.000238 0.501711
vt 0.503460 0.501712
vt -0.002327 0.502813
vt 0.504404 1.001591
vt -0.002327 1.001591
vt 1.001384 0.503698
vt 0.499690 -0.000000
vt 0.000854 1.001473
vt 0.000000 1.000000
vt 0.000238 1.000925
vt 0.504404 0.502813
s 0
usemtl Grass_Block_TEX.001
f 19/1/1 13/2/1 16/3/1
f 24/4/2 30/5/2 27/6/2
f 23/7/3 21/8/3 17/9/3
f 28/10/4 10/11/4 20/12/4
f 31/13/5 12/14/5 9/15/5
f 18/16/6 34/17/6 25/18/6
f 22/1/1 11/19/1 15/2/1
f 5/4/2 35/20/2 32/5/2
f 26/7/3 6/21/3 2/8/3
f 29/10/4 33/22/4 3/11/4
f 7/13/5 36/23/5 14/14/5
f 1/16/6 4/24/6 8/17/6
