# MagicaVoxel @ Ephtracy

# group
o 

# material
mtllib untitled.mtl
usemtl palette

# normals
vn -1 0 0
vn 1 0 0
vn 0 0 1
vn 0 0 -1
vn 0 -1 0
vn 0 1 0

# texcoords
vt 0.306641 0.5
vt 0.841797 0.5

# verts
v -0.5 0 0.5
v -0.5 0 -0.5
v -0.5 0.1 0.5
v -0.5 0.1 -0.5
v -0.5 0.9 0.5
v -0.5 0.9 -0.5
v -0.5 1 0.5
v -0.5 1 -0.5
v -0.2 0.3 0.5
v -0.2 0.3 0.4
v -0.2 0.7 0.5
v -0.2 0.7 0.4
v 0 0.4 0.5
v 0 0.4 0.4
v 0 0.6 0.5
v 0 0.6 0.4
v 0.2 0.3 0.5
v 0.2 0.3 0.4
v 0.2 0.7 0.5
v 0.2 0.7 0.4
v 0.4 0.3 0.5
v 0.4 0.3 0.4
v 0.4 0.7 0.5
v 0.4 0.7 0.4
v -0.4 0.6 0.5
v -0.4 0.6 0.4
v -0.4 0.7 0.5
v -0.4 0.7 0.4
v -0.3 0.3 0.5
v -0.3 0.3 0.4
v -0.3 0.6 0.5
v -0.3 0.6 0.4
v -0.1 0.3 0.5
v -0.1 0.3 0.4
v -0.1 0.7 0.5
v -0.1 0.7 0.4
v 0.1 0.4 0.5
v 0.1 0.4 0.4
v 0.1 0.6 0.5
v 0.1 0.6 0.4
v 0.3 0.3 0.5
v 0.3 0.3 0.4
v 0.3 0.7 0.5
v 0.3 0.7 0.4
v 0.5 0 0.5
v 0.5 0 -0.5
v 0.5 0.1 0.5
v 0.5 0.1 -0.5
v 0.5 0.9 0.5
v 0.5 0.9 -0.5
v 0.5 1 0.5
v 0.5 1 -0.5
v -0.5 0 0.5
v -0.5 0.1 0.5
v -0.5 0.9 0.5
v -0.5 1 0.5
v -0.4 0.6 0.5
v -0.4 0.7 0.5
v -0.3 0.3 0.5
v -0.3 0.6 0.5
v -0.2 0.3 0.5
v -0.2 0.7 0.5
v -0.1 0.3 0.5
v -0.1 0.7 0.5
v 0 0.4 0.5
v 0 0.6 0.5
v 0.1 0.4 0.5
v 0.1 0.6 0.5
v 0.2 0.3 0.5
v 0.2 0.7 0.5
v 0.3 0.3 0.5
v 0.3 0.7 0.5
v 0.4 0.3 0.5
v 0.4 0.7 0.5
v 0.5 0 0.5
v 0.5 0.1 0.5
v 0.5 0.9 0.5
v 0.5 1 0.5
v -0.4 0.6 0.4
v -0.4 0.7 0.4
v -0.3 0.3 0.4
v -0.3 0.6 0.4
v -0.2 0.3 0.4
v -0.2 0.7 0.4
v -0.1 0.3 0.4
v -0.1 0.7 0.4
v 0 0.4 0.4
v 0 0.6 0.4
v 0.1 0.4 0.4
v 0.1 0.6 0.4
v 0.2 0.3 0.4
v 0.2 0.7 0.4
v 0.3 0.3 0.4
v 0.3 0.7 0.4
v 0.4 0.3 0.4
v 0.4 0.7 0.4
v -0.5 0 -0.5
v -0.5 0.1 -0.5
v -0.5 0.9 -0.5
v -0.5 1 -0.5
v 0.5 0 -0.5
v 0.5 0.1 -0.5
v 0.5 0.9 -0.5
v 0.5 1 -0.5
v -0.5 0 0.5
v 0.5 0 0.5
v -0.5 0 -0.5
v 0.5 0 -0.5
v 0 0.4 0.5
v 0.1 0.4 0.5
v 0 0.4 0.4
v 0.1 0.4 0.4
v -0.4 0.7 0.5
v -0.2 0.7 0.5
v -0.1 0.7 0.5
v 0.2 0.7 0.5
v 0.3 0.7 0.5
v 0.4 0.7 0.5
v -0.4 0.7 0.4
v -0.2 0.7 0.4
v -0.1 0.7 0.4
v 0.2 0.7 0.4
v 0.3 0.7 0.4
v 0.4 0.7 0.4
v -0.3 0.3 0.5
v -0.2 0.3 0.5
v -0.1 0.3 0.5
v 0.2 0.3 0.5
v 0.3 0.3 0.5
v 0.4 0.3 0.5
v -0.3 0.3 0.4
v -0.2 0.3 0.4
v -0.1 0.3 0.4
v 0.2 0.3 0.4
v 0.3 0.3 0.4
v 0.4 0.3 0.4
v -0.4 0.6 0.5
v -0.3 0.6 0.5
v 0 0.6 0.5
v 0.1 0.6 0.5
v -0.4 0.6 0.4
v -0.3 0.6 0.4
v 0 0.6 0.4
v 0.1 0.6 0.4
v -0.5 1 0.5
v 0.5 1 0.5
v -0.5 1 -0.5
v 0.5 1 -0.5

# faces
f 3/2/1 2/2/1 1/2/1
f 4/2/1 2/2/1 3/2/1
f 5/1/1 4/1/1 3/1/1
f 6/1/1 4/1/1 5/1/1
f 7/2/1 6/2/1 5/2/1
f 8/2/1 6/2/1 7/2/1
f 11/1/1 10/1/1 9/1/1
f 12/1/1 10/1/1 11/1/1
f 15/1/1 14/1/1 13/1/1
f 16/1/1 14/1/1 15/1/1
f 19/1/1 18/1/1 17/1/1
f 20/1/1 18/1/1 19/1/1
f 23/1/1 22/1/1 21/1/1
f 24/1/1 22/1/1 23/1/1
f 25/1/2 26/1/2 27/1/2
f 27/1/2 26/1/2 28/1/2
f 29/1/2 30/1/2 31/1/2
f 31/1/2 30/1/2 32/1/2
f 33/1/2 34/1/2 35/1/2
f 35/1/2 34/1/2 36/1/2
f 37/1/2 38/1/2 39/1/2
f 39/1/2 38/1/2 40/1/2
f 41/1/2 42/1/2 43/1/2
f 43/1/2 42/1/2 44/1/2
f 45/2/2 46/2/2 47/2/2
f 47/2/2 46/2/2 48/2/2
f 47/1/2 48/1/2 49/1/2
f 49/1/2 48/1/2 50/1/2
f 49/2/2 50/2/2 51/2/2
f 51/2/2 50/2/2 52/2/2
f 57/1/3 55/1/3 54/1/3
f 58/1/3 55/1/3 57/1/3
f 59/1/3 57/1/3 54/1/3
f 60/1/3 57/1/3 59/1/3
f 61/1/3 59/1/3 54/1/3
f 62/1/3 55/1/3 58/1/3
f 63/1/3 61/1/3 54/1/3
f 63/1/3 62/1/3 61/1/3
f 64/1/3 55/1/3 62/1/3
f 64/1/3 62/1/3 63/1/3
f 67/1/3 66/1/3 65/1/3
f 68/1/3 66/1/3 67/1/3
f 69/1/3 63/1/3 54/1/3
f 70/1/3 55/1/3 64/1/3
f 71/1/3 69/1/3 54/1/3
f 71/1/3 70/1/3 69/1/3
f 72/1/3 55/1/3 70/1/3
f 72/1/3 70/1/3 71/1/3
f 73/1/3 71/1/3 54/1/3
f 74/1/3 55/1/3 72/1/3
f 75/2/3 54/2/3 53/2/3
f 76/1/3 74/1/3 73/1/3
f 76/2/3 54/2/3 75/2/3
f 76/1/3 73/1/3 54/1/3
f 77/2/3 56/2/3 55/2/3
f 77/1/3 74/1/3 76/1/3
f 77/1/3 55/1/3 74/1/3
f 78/2/3 56/2/3 77/2/3
f 82/1/3 80/1/3 79/1/3
f 83/1/3 82/1/3 81/1/3
f 84/1/3 80/1/3 82/1/3
f 84/1/3 82/1/3 83/1/3
f 87/1/3 86/1/3 85/1/3
f 88/1/3 86/1/3 87/1/3
f 89/1/3 87/1/3 85/1/3
f 90/1/3 86/1/3 88/1/3
f 91/1/3 89/1/3 85/1/3
f 91/1/3 90/1/3 89/1/3
f 92/1/3 86/1/3 90/1/3
f 92/1/3 90/1/3 91/1/3
f 95/1/3 94/1/3 93/1/3
f 96/1/3 94/1/3 95/1/3
f 97/2/4 98/2/4 101/2/4
f 98/1/4 99/1/4 102/1/4
f 101/2/4 98/2/4 102/2/4
f 99/2/4 100/2/4 103/2/4
f 102/1/4 99/1/4 103/1/4
f 103/2/4 100/2/4 104/2/4
f 107/2/5 106/2/5 105/2/5
f 108/2/5 106/2/5 107/2/5
f 111/1/5 110/1/5 109/1/5
f 112/1/5 110/1/5 111/1/5
f 119/1/5 114/1/5 113/1/5
f 120/1/5 114/1/5 119/1/5
f 121/1/5 116/1/5 115/1/5
f 122/1/5 116/1/5 121/1/5
f 123/1/5 118/1/5 117/1/5
f 124/1/5 118/1/5 123/1/5
f 125/1/6 126/1/6 131/1/6
f 131/1/6 126/1/6 132/1/6
f 127/1/6 128/1/6 133/1/6
f 133/1/6 128/1/6 134/1/6
f 129/1/6 130/1/6 135/1/6
f 135/1/6 130/1/6 136/1/6
f 137/1/6 138/1/6 141/1/6
f 141/1/6 138/1/6 142/1/6
f 139/1/6 140/1/6 143/1/6
f 143/1/6 140/1/6 144/1/6
f 145/2/6 146/2/6 147/2/6
f 147/2/6 146/2/6 148/2/6
